<svg width="32" height="32" viewBox="0 0 32 32" fill="none" xmlns="http://www.w3.org/2000/svg">
<path d="M15.7334 11.4669C14.2668 11.4669 13.0668 12.6669 13.0668 14.1336C13.0668 15.6003 14.2668 16.8003 15.7334 16.8003C17.2001 16.8003 18.4001 15.6003 18.4001 14.1336C18.4001 12.6669 17.2001 11.4669 15.7334 11.4669ZM15.7334 4.80026C20.0934 4.80026 25.0668 8.08026 25.0668 14.3336C25.0668 18.3069 22.2268 22.4936 16.5468 26.8536C16.0668 27.2269 15.4001 27.2269 14.9201 26.8536C9.24009 22.4803 6.40009 18.3069 6.40009 14.3336C6.40009 8.08026 11.3734 4.80026 15.7334 4.80026Z" fill="#9D99E4"/>
</svg>
