<svg width="32" height="32" viewBox="0 0 32 32" fill="none" xmlns="http://www.w3.org/2000/svg">
<path d="M15.996 24.7093C16.3226 24.7094 16.6378 24.8293 16.8818 25.0463C17.1259 25.2633 17.2818 25.5623 17.32 25.8867L17.3293 26.0427V27.984C17.3286 28.3237 17.1983 28.6504 16.9649 28.8972C16.7315 29.1441 16.4126 29.2925 16.0735 29.3123C15.7343 29.332 15.4004 29.2216 15.14 29.0034C14.8795 28.7853 14.7121 28.476 14.672 28.1387L14.6627 27.984V26.0427C14.6627 25.689 14.8032 25.3499 15.0532 25.0999C15.3032 24.8498 15.6424 24.7093 15.996 24.7093ZM24.044 22.1333L25.4173 23.5067C25.66 23.7583 25.7942 24.0952 25.7909 24.4448C25.7876 24.7944 25.6472 25.1287 25.3998 25.3758C25.1524 25.6228 24.8179 25.7628 24.4683 25.7656C24.1187 25.7684 23.782 25.6337 23.5307 25.3907L22.1587 24.0187C21.9158 23.7672 21.7814 23.4304 21.7844 23.0808C21.7875 22.7312 21.9277 22.3968 22.1749 22.1496C22.4221 21.9024 22.7565 21.7621 23.1061 21.7591C23.4557 21.7561 23.7925 21.8905 24.044 22.1333ZM9.83068 22.1333C10.0806 22.3834 10.2211 22.7224 10.2211 23.076C10.2211 23.4296 10.0806 23.7686 9.83068 24.0187L8.46001 25.392C8.20982 25.6422 7.87049 25.7827 7.51667 25.7827C7.16286 25.7827 6.82353 25.6422 6.57334 25.392C6.32315 25.1418 6.1826 24.8025 6.1826 24.4487C6.1826 24.0948 6.32315 23.7555 6.57334 23.5053L7.94668 22.132C8.19671 21.882 8.53579 21.7416 8.88934 21.7416C9.24289 21.7416 9.58197 21.882 9.83201 22.132L9.83068 22.1333ZM16.0133 8.62933C17.9671 8.62933 19.8408 9.40546 21.2224 10.787C22.6039 12.1685 23.38 14.0422 23.38 15.996C23.38 17.9498 22.6039 19.8235 21.2224 21.205C19.8408 22.5865 17.9671 23.3627 16.0133 23.3627C14.0596 23.3627 12.1858 22.5865 10.8043 21.205C9.4228 19.8235 8.64668 17.9498 8.64668 15.996C8.64668 14.0422 9.4228 12.1685 10.8043 10.787C12.1858 9.40546 14.0596 8.62933 16.0133 8.62933ZM15 12C14.7584 12 14.5249 12.0875 14.3428 12.2464C14.1606 12.4052 14.0422 12.6246 14.0093 12.864L14 13V17.0053L14.0093 17.1413C14.0391 17.3577 14.1389 17.5584 14.2935 17.7128C14.448 17.8671 14.6489 17.9666 14.8653 17.996L15 18.0053H17.6667L17.8027 17.996C18.0189 17.9663 18.2194 17.8667 18.3737 17.7124C18.5281 17.5581 18.6277 17.3575 18.6573 17.1413L18.6667 17.0053L18.6573 16.8693C18.6277 16.6531 18.5281 16.4526 18.3737 16.2983C18.2194 16.1439 18.0189 16.0444 17.8027 16.0147L17.6667 16.0053H16V13L15.992 12.864C15.9591 12.6244 15.8405 12.4048 15.6581 12.2459C15.4757 12.0871 15.2419 11.9997 15 12ZM27.9693 14.6907C28.3092 14.691 28.6361 14.8212 28.8832 15.0545C29.1303 15.2878 29.279 15.6066 29.2989 15.9459C29.3188 16.2851 29.2084 16.6192 28.9903 16.8798C28.7722 17.1404 28.4628 17.3079 28.1253 17.348L27.9693 17.3573H26.0293C25.6895 17.357 25.3626 17.2268 25.1155 16.9935C24.8684 16.7602 24.7197 16.4414 24.6998 16.1021C24.6799 15.7629 24.7902 15.4288 25.0084 15.1682C25.2265 14.9076 25.5359 14.7401 25.8733 14.7L26.0293 14.6907H27.9707H27.9693ZM5.97334 14.6533C6.31318 14.6537 6.64005 14.7838 6.88717 15.0171C7.13428 15.2504 7.28299 15.5693 7.3029 15.9085C7.32282 16.2478 7.21244 16.5818 6.99432 16.8424C6.7762 17.103 6.4668 17.2705 6.12934 17.3107L5.97334 17.32H4.03067C3.69095 17.3193 3.36431 17.1889 3.11745 16.9555C2.87059 16.7221 2.72213 16.4033 2.70239 16.0641C2.68265 15.725 2.79311 15.3911 3.01123 15.1306C3.22935 14.8702 3.53866 14.7028 3.87601 14.6627L4.03067 14.6533H5.97334ZM8.33334 6.49867L8.46001 6.60933L9.83201 7.98267C10.0711 8.22261 10.21 8.54458 10.2203 8.88318C10.2307 9.22178 10.1117 9.55162 9.88768 9.8057C9.66363 10.0598 9.35127 10.2191 9.01404 10.2512C8.67681 10.2833 8.34 10.1859 8.07201 9.97867L7.94668 9.86667L6.57334 8.49467C6.33421 8.25472 6.19538 7.93275 6.18504 7.59415C6.1747 7.25556 6.29363 6.92572 6.51767 6.67163C6.74172 6.41754 7.05408 6.25826 7.39131 6.22613C7.72854 6.19401 8.06535 6.29145 8.33334 6.49867ZM25.4173 6.60933C25.6469 6.83892 25.7848 7.14439 25.8052 7.46842C25.8256 7.79246 25.727 8.11279 25.528 8.36933L25.4173 8.49467L24.044 9.868C23.8041 10.1071 23.4821 10.246 23.1435 10.2563C22.8049 10.2666 22.4751 10.1477 22.221 9.92367C21.9669 9.69962 21.8076 9.38726 21.7755 9.05003C21.7434 8.7128 21.8408 8.37599 22.048 8.108L22.1587 7.98133L23.532 6.608C23.782 6.35804 24.1211 6.21762 24.4747 6.21762C24.8282 6.21762 25.1673 6.35937 25.4173 6.60933ZM16 2.684C16.3266 2.68404 16.6418 2.80394 16.8858 3.02095C17.1299 3.23797 17.2858 3.537 17.324 3.86133L17.3333 4.01733V5.95733C17.336 6.29925 17.2073 6.62913 16.9737 6.87881C16.7401 7.12849 16.4195 7.27889 16.0781 7.29892C15.7368 7.31894 15.4008 7.20708 15.1396 6.98643C14.8784 6.76578 14.712 6.45322 14.6747 6.11333L14.6667 5.95733V4.01733C14.6667 3.66371 14.8072 3.32457 15.0572 3.07452C15.3072 2.82448 15.6464 2.684 16 2.684Z" fill="#DAD8F7"/>
</svg>
