<svg width="32" height="32" viewBox="0 0 32 32" fill="none" xmlns="http://www.w3.org/2000/svg">
<path d="M24.2363 15.523C24.2257 15.523 24.216 15.5259 24.2055 15.5261C24.4002 15.0756 24.5093 14.5794 24.5093 14.0575C24.5093 12.0107 22.8501 10.3515 20.8033 10.3515C20.08 10.3515 19.4072 10.562 18.8368 10.9204C18.0652 9.04504 16.2219 7.72357 14.0682 7.72357C11.2203 7.72357 8.91181 10.0321 8.91181 12.88C8.91181 13.0952 8.92924 13.3061 8.95488 13.5143C8.94035 13.5142 8.92633 13.5122 8.91181 13.5122C7.00249 13.5122 5.45453 15.0601 5.45453 16.9695C5.45453 18.8788 7.00249 20.4267 8.91181 20.4267H24.2363C25.5905 20.4267 26.6882 19.329 26.6882 17.9749C26.6882 16.6207 25.5905 15.523 24.2363 15.523Z" fill="white"/>
<path d="M12.2492 26.4675C11.8327 27.334 10.7926 27.6988 9.92611 27.2823C9.05966 26.8658 8.69482 25.8257 9.11131 24.9593C9.52793 24.0928 12.2212 22.5074 12.2212 22.5074C12.2212 22.5074 12.6656 25.6011 12.2492 26.4675Z" fill="#C2CEF2"/>
<path d="M16.5777 26.4675C16.1613 27.334 15.1212 27.6988 14.2547 27.2823C13.3882 26.8658 13.0235 25.8257 13.4399 24.9593C13.8566 24.0928 16.5499 22.5074 16.5499 22.5074C16.5499 22.5074 16.9943 25.6011 16.5777 26.4675Z" fill="#C2CEF2"/>
<path d="M20.9674 26.4675C20.5509 27.334 19.5108 27.6988 18.6444 27.2823C17.7779 26.8658 17.4132 25.8257 17.8296 24.9593C18.2462 24.0928 20.9395 22.5074 20.9395 22.5074C20.9395 22.5074 21.3839 25.6011 20.9674 26.4675Z" fill="#C2CEF2"/>
</svg>
