<svg width="32" height="32" viewBox="0 0 32 32" fill="none" xmlns="http://www.w3.org/2000/svg">
<path d="M20.44 16.1372C20.44 18.5134 18.5137 20.4397 16.1385 20.4397C13.7618 20.4397 11.8355 18.5134 11.8355 16.1372C11.8355 13.7605 13.7618 11.8342 16.1385 11.8342C18.5137 11.8342 20.44 13.7605 20.44 16.1372Z" fill="#F6C833"/>
<path d="M16.1384 10.2001C15.8536 10.2001 15.6221 9.97004 15.6221 9.68523V6.01502C15.6221 5.73021 15.8536 5.50012 16.1384 5.50012C16.4232 5.50012 16.6533 5.73021 16.6533 6.01502V9.68523C16.6533 9.97004 16.4232 10.2001 16.1384 10.2001Z" fill="#F6C833"/>
<path d="M16.1384 26.775C15.8536 26.775 15.6221 26.544 15.6221 26.2592V22.5898C15.6221 22.305 15.8536 22.0741 16.1384 22.0741C16.4232 22.0741 16.6533 22.305 16.6533 22.5898V26.2592C16.6533 26.544 16.4232 26.775 16.1384 26.775Z" fill="#F6C833"/>
<path d="M20.3362 11.9396C20.1342 11.7376 20.1342 11.4107 20.3362 11.21L22.9303 8.6145C23.1324 8.41387 23.4593 8.41387 23.6599 8.6145C23.8619 8.81653 23.8619 9.14343 23.6599 9.34406L21.0658 11.9396C20.8637 12.1402 20.5382 12.1402 20.3362 11.9396Z" fill="#F6C833"/>
<path d="M8.61588 23.6594C8.41442 23.4579 8.41442 23.1313 8.61588 22.9299L11.2104 20.3353C11.4118 20.1339 11.7384 20.1339 11.9399 20.3353C12.1412 20.5367 12.1412 20.8632 11.9399 21.0647L9.34517 23.6594C9.1437 23.8608 8.81721 23.8608 8.61588 23.6594Z" fill="#F6C833"/>
<path d="M22.0745 16.1374C22.0745 15.8526 22.306 15.6211 22.5908 15.6211H26.2596C26.5444 15.6211 26.776 15.8526 26.776 16.1374C26.776 16.4222 26.5444 16.6537 26.2596 16.6537H22.5908C22.306 16.6537 22.0745 16.4222 22.0745 16.1374Z" fill="#F6C833"/>
<path d="M5.5 16.1374C5.5 15.8526 5.73094 15.6211 6.01575 15.6211H9.68527C9.97007 15.6211 10.2009 15.8526 10.2009 16.1374C10.2009 16.4222 9.97007 16.6537 9.68527 16.6537H6.01575C5.73094 16.6537 5.5 16.4222 5.5 16.1374Z" fill="#F6C833"/>
<path d="M20.3362 20.3353C20.5382 20.1339 20.8637 20.1339 21.0658 20.3353L23.6599 22.9299C23.8619 23.1313 23.8619 23.4579 23.6599 23.6594C23.4593 23.8608 23.1324 23.8608 22.9303 23.6594L20.3362 21.0647C20.1342 20.8632 20.1342 20.5367 20.3362 20.3353Z" fill="#F6C833"/>
<path d="M8.61588 8.6145C8.81721 8.41387 9.1437 8.41387 9.34517 8.6145L11.9399 11.21C12.1412 11.4107 12.1412 11.7376 11.9399 11.9396C11.7384 12.1402 11.4118 12.1402 11.2104 11.9396L8.61588 9.34406C8.41442 9.14343 8.41442 8.81653 8.61588 8.6145Z" fill="#F6C833"/>
</svg>
