<svg width="32" height="32" viewBox="0 0 32 32" fill="none" xmlns="http://www.w3.org/2000/svg">
<path d="M12.5216 11.7471C12.5216 13.6805 10.9541 15.2479 9.02048 15.2479C7.08687 15.2479 5.51935 13.6805 5.51935 11.7471C5.51935 9.8138 7.08687 8.2464 9.02048 8.2464C10.9541 8.2464 12.5216 9.8138 12.5216 11.7471Z" fill="#FBDB60"/>
<path d="M9.02047 6.91577C8.78866 6.91577 8.60071 6.72743 8.60071 6.49602V3.51057C8.60071 3.27782 8.78866 3.09081 9.02047 3.09081C9.25228 3.09081 9.4401 3.27782 9.4401 3.51057V6.49602C9.4401 6.72743 9.25228 6.91577 9.02047 6.91577Z" fill="#FBDB60"/>
<path d="M9.02047 20.4036C8.78866 20.4036 8.60071 20.2158 8.60071 19.984V16.9982C8.60071 16.7654 8.78866 16.5784 9.02047 16.5784C9.25228 16.5784 9.4401 16.7654 9.4401 16.9982V19.984C9.4401 20.2158 9.25228 20.4036 9.02047 20.4036Z" fill="#FBDB60"/>
<path d="M12.4367 8.33121C12.2729 8.16707 12.2729 7.90068 12.4367 7.73654L14.5482 5.62562C14.7121 5.46148 14.9778 5.46148 15.1417 5.62562C15.3057 5.78976 15.3057 6.0548 15.1417 6.21894L13.0303 8.33121C12.8665 8.49401 12.6006 8.49401 12.4367 8.33121Z" fill="#FBDB60"/>
<path d="M2.89921 17.8687C2.73534 17.7046 2.73534 17.4382 2.89921 17.2754L5.01068 15.1631C5.17455 14.9989 5.44026 14.9989 5.60427 15.1631C5.76814 15.3272 5.76814 15.5936 5.60427 15.7564L3.4928 17.8687C3.32893 18.0315 3.06308 18.0315 2.89921 17.8687Z" fill="#FBDB60"/>
<path d="M13.8518 11.7472C13.8518 11.5158 14.0396 11.3274 14.2714 11.3274H17.2576C17.4892 11.3274 17.6772 11.5158 17.6772 11.7472C17.6772 11.9786 17.4892 12.1669 17.2576 12.1669H14.2714C14.0396 12.1669 13.8518 11.9786 13.8518 11.7472Z" fill="#FBDB60"/>
<path d="M0.363647 11.7472C0.363647 11.5158 0.551599 11.3274 0.783411 11.3274H3.76939C4.0012 11.3274 4.18916 11.5158 4.18916 11.7472C4.18916 11.9786 4.0012 12.1669 3.76939 12.1669H0.783411C0.551599 12.1669 0.363647 11.9786 0.363647 11.7472Z" fill="#FBDB60"/>
<path d="M12.4367 15.1631C12.6006 14.9989 12.8665 14.9989 13.0303 15.1631L15.1417 17.2754C15.3057 17.4382 15.3057 17.7046 15.1417 17.8687C14.9778 18.0315 14.7121 18.0315 14.5482 17.8687L12.4367 15.7564C12.2729 15.5936 12.2729 15.3272 12.4367 15.1631Z" fill="#FBDB60"/>
<path d="M2.89921 5.62562C3.06308 5.46148 3.32893 5.46148 3.4928 5.62562L5.60427 7.73654C5.76814 7.90068 5.76814 8.16707 5.60427 8.33121C5.44026 8.49401 5.17455 8.49401 5.01068 8.33121L2.89921 6.21894C2.73534 6.0548 2.73534 5.78976 2.89921 5.62562Z" fill="#FBDB60"/>
<path d="M25.0626 17.8673C25.0513 17.8673 25.0409 17.87 25.0296 17.87C25.2371 17.3897 25.3533 16.861 25.3533 16.3053C25.3533 14.1244 23.5856 12.3579 21.4053 12.3579C20.6346 12.3579 19.9178 12.5812 19.3102 12.9633C18.4882 10.9654 16.5244 9.55679 14.2298 9.55679C11.196 9.55679 8.73658 12.0175 8.73658 15.0514C8.73658 15.2801 8.75515 15.5048 8.78233 15.7268C8.76699 15.7268 8.75205 15.7241 8.73658 15.7241C6.70234 15.7241 5.05328 17.3736 5.05328 19.4077C5.05328 21.4418 6.70234 23.0908 8.73658 23.0908H25.0626C26.5053 23.0908 27.6747 21.9214 27.6747 20.4787C27.6747 19.0362 26.5053 17.8673 25.0626 17.8673Z" fill="white"/>
</svg>
