<svg width="32" height="32" viewBox="0 0 32 32" fill="none" xmlns="http://www.w3.org/2000/svg">
<path d="M24.2506 15.6917C24.2399 15.6917 24.2302 15.6946 24.2194 15.6947C24.4161 15.2397 24.5264 14.7385 24.5264 14.2113C24.5264 12.144 22.8503 10.4679 20.783 10.4679C20.0523 10.4679 19.3728 10.6806 18.7966 11.0426C18.0172 9.14834 16.1553 7.81354 13.9799 7.81354C11.1034 7.81354 8.77164 10.1453 8.77164 13.022C8.77164 13.2393 8.78911 13.4523 8.81501 13.6627C8.80034 13.6626 8.78618 13.6605 8.77164 13.6605C6.84293 13.6605 5.27942 15.224 5.27942 17.1527C5.27942 19.0813 6.84293 20.6448 8.77164 20.6448H24.2506C25.6184 20.6448 26.7273 19.5361 26.7273 18.1683C26.7273 16.8004 25.6184 15.6917 24.2506 15.6917Z" fill="#C2CEF2"/>
<path d="M15.0689 22.1818L14 25.5205H15.4737L14.5182 28.9091L18 24.1252H16.2025L16.8826 22.1818H15.0689Z" fill="#FBDB60"/>
</svg>
